<svg width="16" height="16" viewBox="0 0 16 16" fill="none" xmlns="http://www.w3.org/2000/svg">
<g id="ri:play-fill">
<path id="Vector" d="M4.48192 8.27722L11.5479 12.9879C11.5981 13.0213 11.6564 13.0404 11.7167 13.0433C11.7769 13.0462 11.8368 13.0327 11.8899 13.0042C11.9431 12.9758 11.9875 12.9334 12.0185 12.8817C12.0495 12.83 12.0659 12.7708 12.0659 12.7105V3.28922C12.0659 3.22892 12.0495 3.16976 12.0185 3.11804C11.9875 3.06633 11.9431 3.02398 11.8899 2.99552C11.8368 2.96706 11.7769 2.95355 11.7167 2.95644C11.6564 2.95932 11.5981 2.97848 11.5479 3.01188L4.48192 7.72255C4.43627 7.75299 4.39883 7.79423 4.37294 7.84261C4.34706 7.89099 4.33351 7.94501 4.33351 7.99988C4.33351 8.05475 4.34706 8.10878 4.37294 8.15716C4.39883 8.20553 4.43627 8.24678 4.48192 8.27722Z" fill="#E1DEF5"/>
</g>
</svg>
