<svg width="16" height="16" viewBox="0 0 16 16" fill="none" xmlns="http://www.w3.org/2000/svg">
<g id="tabler:pin-filled">
<path id="Vector" d="M10.0754 2.14005L10.138 2.19538L13.8047 5.86205C13.9171 5.97503 13.9853 6.12453 13.9969 6.28347C14.0086 6.4424 13.9629 6.60025 13.8682 6.72841C13.7735 6.85657 13.636 6.94657 13.4807 6.98209C13.3253 7.01761 13.1624 6.99631 13.0214 6.92205L10.9067 9.03605L9.95738 11.5674C9.93237 11.6342 9.89681 11.6965 9.85205 11.752L9.80538 11.8054L8.80538 12.8054C8.6905 12.9201 8.53772 12.9889 8.37571 12.999C8.21369 13.009 8.05357 12.9596 7.92538 12.86L7.86205 12.8047L6.00005 10.9434L3.47138 13.4714C3.35141 13.5909 3.19042 13.6604 3.02112 13.6655C2.85182 13.6707 2.6869 13.6112 2.55986 13.4992C2.43282 13.3872 2.35317 13.231 2.33711 13.0624C2.32105 12.8938 2.36977 12.7254 2.47338 12.5914L2.52871 12.5287L5.05671 10L3.19538 8.13805C3.08059 8.02325 3.01164 7.87052 3.00145 7.7085C2.99126 7.54648 3.04054 7.38632 3.14005 7.25805L3.19538 7.19538L4.19538 6.19538C4.24568 6.1449 4.30375 6.10281 4.36738 6.07071L4.43271 6.04271L6.96338 5.09271L9.07738 2.97938C9.00529 2.8446 8.98171 2.68914 9.01057 2.53905C9.03944 2.38895 9.11901 2.25334 9.23594 2.15491C9.35288 2.05649 9.50009 2.00123 9.65291 1.99841C9.80573 1.99558 9.95488 2.04601 10.0754 2.14005Z" fill="#7367CC"/>
</g>
</svg>
