<svg width="22" height="22" viewBox="0 0 22 22" fill="none" xmlns="http://www.w3.org/2000/svg">
<g id="tabler:calendar">
<path id="Vector" d="M14.6667 2.75V6.41667M7.33335 2.75V6.41667M3.66669 10.0833H18.3334M10.0834 13.75H11V16.5M3.66669 6.41667C3.66669 5.93044 3.85984 5.46412 4.20366 5.1203C4.54747 4.77649 5.01379 4.58333 5.50002 4.58333H16.5C16.9863 4.58333 17.4526 4.77649 17.7964 5.1203C18.1402 5.46412 18.3334 5.93044 18.3334 6.41667V17.4167C18.3334 17.9029 18.1402 18.3692 17.7964 18.713C17.4526 19.0568 16.9863 19.25 16.5 19.25H5.50002C5.01379 19.25 4.54747 19.0568 4.20366 18.713C3.85984 18.3692 3.66669 17.9029 3.66669 17.4167V6.41667Z" stroke="#E1DEF5" stroke-opacity="0.9" stroke-width="1.5" stroke-linecap="round" stroke-linejoin="round"/>
</g>
</svg>
