<svg width="16" height="16" viewBox="0 0 16 16" fill="none" xmlns="http://www.w3.org/2000/svg">
<g id="iconamoon:screen-normal-duotone">
<path id="Vector" d="M5.99996 2.66675V4.66675C5.99996 5.02037 5.85948 5.35951 5.60943 5.60956C5.35939 5.85961 5.02025 6.00008 4.66663 6.00008H2.66663M9.99996 13.3334V11.3334C9.99996 10.9798 10.1404 10.6407 10.3905 10.3906C10.6405 10.1406 10.9797 10.0001 11.3333 10.0001H13.3333M13.3333 6.00008H11.3333C10.9797 6.00008 10.6405 5.85961 10.3905 5.60956C10.1404 5.35951 9.99996 5.02037 9.99996 4.66675V2.66675M2.66663 10.0001H4.66663C5.02025 10.0001 5.35939 10.1406 5.60943 10.3906C5.85948 10.6407 5.99996 10.9798 5.99996 11.3334V13.3334" stroke="#7367CC" stroke-width="1.33333" stroke-linecap="round" stroke-linejoin="round"/>
</g>
</svg>
