<svg width="16" height="16" viewBox="0 0 16 16" fill="none" xmlns="http://www.w3.org/2000/svg">
<g id="ph:x-bold">
<path id="Vector" d="M13.0306 11.9695C13.1715 12.1104 13.2507 12.3015 13.2507 12.5007C13.2507 12.7 13.1715 12.8911 13.0306 13.032C12.8897 13.1729 12.6986 13.252 12.4994 13.252C12.3001 13.252 12.109 13.1729 11.9681 13.032L8 9.06261L4.03063 13.0307C3.88973 13.1716 3.69864 13.2508 3.49938 13.2508C3.30012 13.2508 3.10902 13.1716 2.96813 13.0307C2.82723 12.8898 2.74808 12.6987 2.74808 12.4995C2.74808 12.3002 2.82723 12.1091 2.96813 11.9682L6.9375 8.00011L2.96938 4.03073C2.82848 3.88984 2.74933 3.69874 2.74933 3.49948C2.74933 3.30023 2.82848 3.10913 2.96938 2.96823C3.11027 2.82734 3.30137 2.74818 3.50063 2.74818C3.69989 2.74818 3.89098 2.82734 4.03188 2.96823L8 6.93761L11.9694 2.96761C12.1103 2.82671 12.3014 2.74756 12.5006 2.74756C12.6999 2.74756 12.891 2.82671 13.0319 2.96761C13.1728 3.10851 13.2519 3.2996 13.2519 3.49886C13.2519 3.69812 13.1728 3.88921 13.0319 4.03011L9.0625 8.00011L13.0306 11.9695Z" fill="#E1DEF5" fill-opacity="0.9"/>
</g>
</svg>
