<svg width="16" height="16" viewBox="0 0 16 16" fill="none" xmlns="http://www.w3.org/2000/svg">
<g id="ri:play-fill">
<path id="Vector" d="M8.47705 11.7178L13.1877 4.65179C13.2211 4.60159 13.2403 4.54328 13.2432 4.48305C13.246 4.42282 13.2325 4.36294 13.2041 4.30979C13.1756 4.25663 13.1333 4.21219 13.0816 4.1812C13.0298 4.15021 12.9707 4.13382 12.9104 4.13379L3.48905 4.13379C3.42875 4.13382 3.36959 4.1502 3.31787 4.1812C3.26615 4.21219 3.22381 4.25663 3.19535 4.30979C3.16689 4.36294 3.15338 4.42282 3.15626 4.48305C3.15915 4.54328 3.17831 4.60159 3.21171 4.65179L7.92238 11.7178C7.95282 11.7634 7.99406 11.8009 8.04244 11.8268C8.09082 11.8527 8.14484 11.8662 8.19971 11.8662C8.25458 11.8662 8.3086 11.8527 8.35698 11.8268C8.40536 11.8009 8.4466 11.7634 8.47705 11.7178Z" fill="#7367CC"/>
</g>
</svg>
