<svg width="16" height="16" viewBox="0 0 16 16" fill="none" xmlns="http://www.w3.org/2000/svg">
<g id="octicon:x-16">
<path id="Vector" d="M3.71995 3.72006C3.86058 3.57961 4.0512 3.50072 4.24995 3.50072C4.4487 3.50072 4.63933 3.57961 4.77995 3.72006L7.99995 6.94006L11.22 3.72006C11.3116 3.62133 11.4282 3.54916 11.5575 3.51115C11.6867 3.47313 11.8238 3.47068 11.9544 3.50406C12.0849 3.53743 12.204 3.60539 12.2991 3.70078C12.3943 3.79617 12.4619 3.91545 12.495 4.04606C12.5283 4.17644 12.5259 4.31338 12.488 4.44252C12.4502 4.57167 12.3783 4.68825 12.28 4.78006L9.05995 8.00006L12.28 11.2201C12.3787 11.3117 12.4508 11.4283 12.4889 11.5576C12.5269 11.6868 12.5293 11.8239 12.496 11.9545C12.4626 12.085 12.3946 12.2041 12.2992 12.2992C12.2038 12.3944 12.0846 12.462 11.954 12.4951C11.8236 12.5284 11.6866 12.526 11.5575 12.4882C11.4283 12.4503 11.3118 12.3784 11.22 12.2801L7.99995 9.06006L4.77995 12.2801C4.6378 12.4127 4.44971 12.485 4.25531 12.4816C4.06092 12.4782 3.87543 12.3995 3.73795 12.2621C3.60048 12.1246 3.52176 11.9391 3.51841 11.7447C3.51505 11.5503 3.58731 11.3622 3.71995 11.2201L6.93995 8.00006L3.71995 4.78006C3.5795 4.63943 3.50061 4.44881 3.50061 4.25006C3.50061 4.05131 3.5795 3.86068 3.71995 3.72006Z" fill="#7367CC" fill-opacity="0.9"/>
</g>
</svg>
