<svg width="16" height="16" viewBox="0 0 16 16" fill="none" xmlns="http://www.w3.org/2000/svg">
<g id="iconamoon:screen-full-duotone">
<path id="Vector" d="M2.66663 6.00008V4.00008C2.66663 3.64646 2.8071 3.30732 3.05715 3.05727C3.3072 2.80722 3.64634 2.66675 3.99996 2.66675H5.99996M13.3333 10.0001V12.0001C13.3333 12.3537 13.1928 12.6928 12.9428 12.9429C12.6927 13.1929 12.3536 13.3334 12 13.3334H9.99996M9.99996 2.66675H12C12.3536 2.66675 12.6927 2.80722 12.9428 3.05727C13.1928 3.30732 13.3333 3.64646 13.3333 4.00008V6.00008M5.99996 13.3334H3.99996C3.64634 13.3334 3.3072 13.1929 3.05715 12.9429C2.8071 12.6928 2.66663 12.3537 2.66663 12.0001V10.0001" stroke="#7367CC" stroke-width="1.33333" stroke-linecap="round" stroke-linejoin="round"/>
</g>
</svg>
